G04 #@! TF.FileFunction,Paste,Top*
%FSLAX46Y46*%
G04 Gerber Fmt 4.6, Leading zero omitted, Abs format (unit mm)*
G04 Created by KiCad (PCBNEW 4.0.4-stable) date 02/09/17 19:27:25*
%MOMM*%
%LPD*%
G01*
G04 APERTURE LIST*
%ADD10C,0.100000*%
%ADD11R,1.800000X1.800000*%
G04 APERTURE END LIST*
D10*
D11*
X106920000Y-102150000D03*
X108870000Y-102150000D03*
X112770000Y-102150000D03*
X110820000Y-102150000D03*
X118620000Y-102150000D03*
X120570000Y-102150000D03*
X116670000Y-102150000D03*
X114720000Y-102150000D03*
X130320000Y-102150000D03*
X132270000Y-102150000D03*
X136170000Y-102150000D03*
X134220000Y-102150000D03*
X126420000Y-102150000D03*
X128370000Y-102150000D03*
X124470000Y-102150000D03*
X122520000Y-102150000D03*
X153720000Y-102150000D03*
X155670000Y-102150000D03*
X159570000Y-102150000D03*
X157620000Y-102150000D03*
X145920000Y-102150000D03*
X147870000Y-102150000D03*
X151770000Y-102150000D03*
X149820000Y-102150000D03*
X142020000Y-102150000D03*
X143970000Y-102150000D03*
X140070000Y-102150000D03*
X138120000Y-102150000D03*
X138120000Y-104100000D03*
X140070000Y-104100000D03*
X143970000Y-104100000D03*
X142020000Y-104100000D03*
X149820000Y-104100000D03*
X151770000Y-104100000D03*
X147870000Y-104100000D03*
X145920000Y-104100000D03*
X157620000Y-104100000D03*
X159570000Y-104100000D03*
X155670000Y-104100000D03*
X153720000Y-104100000D03*
X122520000Y-104100000D03*
X124470000Y-104100000D03*
X128370000Y-104100000D03*
X126420000Y-104100000D03*
X134220000Y-104100000D03*
X136170000Y-104100000D03*
X132270000Y-104100000D03*
X130320000Y-104100000D03*
X114720000Y-104100000D03*
X116670000Y-104100000D03*
X120570000Y-104100000D03*
X118620000Y-104100000D03*
X110820000Y-104100000D03*
X112770000Y-104100000D03*
X108870000Y-104100000D03*
X106920000Y-104100000D03*
X106920000Y-108000000D03*
X108870000Y-108000000D03*
X112770000Y-108000000D03*
X110820000Y-108000000D03*
X118620000Y-108000000D03*
X120570000Y-108000000D03*
X116670000Y-108000000D03*
X114720000Y-108000000D03*
X130320000Y-108000000D03*
X132270000Y-108000000D03*
X136170000Y-108000000D03*
X134220000Y-108000000D03*
X126420000Y-108000000D03*
X128370000Y-108000000D03*
X124470000Y-108000000D03*
X122520000Y-108000000D03*
X153720000Y-108000000D03*
X155670000Y-108000000D03*
X159570000Y-108000000D03*
X157620000Y-108000000D03*
X145920000Y-108000000D03*
X147870000Y-108000000D03*
X151770000Y-108000000D03*
X149820000Y-108000000D03*
X142020000Y-108000000D03*
X143970000Y-108000000D03*
X140070000Y-108000000D03*
X138120000Y-108000000D03*
X138120000Y-106050000D03*
X140070000Y-106050000D03*
X143970000Y-106050000D03*
X142020000Y-106050000D03*
X149820000Y-106050000D03*
X151770000Y-106050000D03*
X147870000Y-106050000D03*
X145920000Y-106050000D03*
X157620000Y-106050000D03*
X159570000Y-106050000D03*
X155670000Y-106050000D03*
X153720000Y-106050000D03*
X122520000Y-106050000D03*
X124470000Y-106050000D03*
X128370000Y-106050000D03*
X126420000Y-106050000D03*
X134220000Y-106050000D03*
X136170000Y-106050000D03*
X132270000Y-106050000D03*
X130320000Y-106050000D03*
X114720000Y-106050000D03*
X116670000Y-106050000D03*
X120570000Y-106050000D03*
X118620000Y-106050000D03*
X110820000Y-106050000D03*
X112770000Y-106050000D03*
X108870000Y-106050000D03*
X106920000Y-106050000D03*
X106920000Y-113850000D03*
X108870000Y-113850000D03*
X112770000Y-113850000D03*
X110820000Y-113850000D03*
X118620000Y-113850000D03*
X120570000Y-113850000D03*
X116670000Y-113850000D03*
X114720000Y-113850000D03*
X130320000Y-113850000D03*
X132270000Y-113850000D03*
X136170000Y-113850000D03*
X134220000Y-113850000D03*
X126420000Y-113850000D03*
X128370000Y-113850000D03*
X124470000Y-113850000D03*
X122520000Y-113850000D03*
X153720000Y-113850000D03*
X155670000Y-113850000D03*
X159570000Y-113850000D03*
X157620000Y-113850000D03*
X145920000Y-113850000D03*
X147870000Y-113850000D03*
X151770000Y-113850000D03*
X149820000Y-113850000D03*
X142020000Y-113850000D03*
X143970000Y-113850000D03*
X140070000Y-113850000D03*
X138120000Y-113850000D03*
X138120000Y-115800000D03*
X140070000Y-115800000D03*
X143970000Y-115800000D03*
X142020000Y-115800000D03*
X149820000Y-115800000D03*
X151770000Y-115800000D03*
X147870000Y-115800000D03*
X145920000Y-115800000D03*
X157620000Y-115800000D03*
X159570000Y-115800000D03*
X155670000Y-115800000D03*
X153720000Y-115800000D03*
X122520000Y-115800000D03*
X124470000Y-115800000D03*
X128370000Y-115800000D03*
X126420000Y-115800000D03*
X134220000Y-115800000D03*
X136170000Y-115800000D03*
X132270000Y-115800000D03*
X130320000Y-115800000D03*
X114720000Y-115800000D03*
X116670000Y-115800000D03*
X120570000Y-115800000D03*
X118620000Y-115800000D03*
X110820000Y-115800000D03*
X112770000Y-115800000D03*
X108870000Y-115800000D03*
X106920000Y-115800000D03*
X106920000Y-111900000D03*
X108870000Y-111900000D03*
X112770000Y-111900000D03*
X110820000Y-111900000D03*
X118620000Y-111900000D03*
X120570000Y-111900000D03*
X116670000Y-111900000D03*
X114720000Y-111900000D03*
X130320000Y-111900000D03*
X132270000Y-111900000D03*
X136170000Y-111900000D03*
X134220000Y-111900000D03*
X126420000Y-111900000D03*
X128370000Y-111900000D03*
X124470000Y-111900000D03*
X122520000Y-111900000D03*
X153720000Y-111900000D03*
X155670000Y-111900000D03*
X159570000Y-111900000D03*
X157620000Y-111900000D03*
X145920000Y-111900000D03*
X147870000Y-111900000D03*
X151770000Y-111900000D03*
X149820000Y-111900000D03*
X142020000Y-111900000D03*
X143970000Y-111900000D03*
X140070000Y-111900000D03*
X138120000Y-111900000D03*
X138120000Y-109950000D03*
X140070000Y-109950000D03*
X143970000Y-109950000D03*
X142020000Y-109950000D03*
X149820000Y-109950000D03*
X151770000Y-109950000D03*
X147870000Y-109950000D03*
X145920000Y-109950000D03*
X157620000Y-109950000D03*
X159570000Y-109950000D03*
X155670000Y-109950000D03*
X153720000Y-109950000D03*
X122520000Y-109950000D03*
X124470000Y-109950000D03*
X128370000Y-109950000D03*
X126420000Y-109950000D03*
X134220000Y-109950000D03*
X136170000Y-109950000D03*
X132270000Y-109950000D03*
X130320000Y-109950000D03*
X114720000Y-109950000D03*
X116670000Y-109950000D03*
X120570000Y-109950000D03*
X118620000Y-109950000D03*
X110820000Y-109950000D03*
X112770000Y-109950000D03*
X108870000Y-109950000D03*
X106920000Y-109950000D03*
X106920000Y-121650000D03*
X108870000Y-121650000D03*
X112770000Y-121650000D03*
X110820000Y-121650000D03*
X118620000Y-121650000D03*
X120570000Y-121650000D03*
X116670000Y-121650000D03*
X114720000Y-121650000D03*
X130320000Y-121650000D03*
X132270000Y-121650000D03*
X136170000Y-121650000D03*
X134220000Y-121650000D03*
X126420000Y-121650000D03*
X128370000Y-121650000D03*
X124470000Y-121650000D03*
X122520000Y-121650000D03*
X153720000Y-121650000D03*
X155670000Y-121650000D03*
X159570000Y-121650000D03*
X157620000Y-121650000D03*
X145920000Y-121650000D03*
X147870000Y-121650000D03*
X151770000Y-121650000D03*
X149820000Y-121650000D03*
X142020000Y-121650000D03*
X143970000Y-121650000D03*
X140070000Y-121650000D03*
X138120000Y-121650000D03*
X138120000Y-123600000D03*
X140070000Y-123600000D03*
X143970000Y-123600000D03*
X142020000Y-123600000D03*
X149820000Y-123600000D03*
X151770000Y-123600000D03*
X147870000Y-123600000D03*
X145920000Y-123600000D03*
X157620000Y-123600000D03*
X159570000Y-123600000D03*
X155670000Y-123600000D03*
X153720000Y-123600000D03*
X122520000Y-123600000D03*
X124470000Y-123600000D03*
X128370000Y-123600000D03*
X126420000Y-123600000D03*
X134220000Y-123600000D03*
X136170000Y-123600000D03*
X132270000Y-123600000D03*
X130320000Y-123600000D03*
X114720000Y-123600000D03*
X116670000Y-123600000D03*
X120570000Y-123600000D03*
X118620000Y-123600000D03*
X110820000Y-123600000D03*
X112770000Y-123600000D03*
X108870000Y-123600000D03*
X106920000Y-123600000D03*
X106920000Y-119700000D03*
X108870000Y-119700000D03*
X112770000Y-119700000D03*
X110820000Y-119700000D03*
X118620000Y-119700000D03*
X120570000Y-119700000D03*
X116670000Y-119700000D03*
X114720000Y-119700000D03*
X130320000Y-119700000D03*
X132270000Y-119700000D03*
X136170000Y-119700000D03*
X134220000Y-119700000D03*
X126420000Y-119700000D03*
X128370000Y-119700000D03*
X124470000Y-119700000D03*
X122520000Y-119700000D03*
X153720000Y-119700000D03*
X155670000Y-119700000D03*
X159570000Y-119700000D03*
X157620000Y-119700000D03*
X145920000Y-119700000D03*
X147870000Y-119700000D03*
X151770000Y-119700000D03*
X149820000Y-119700000D03*
X142020000Y-119700000D03*
X143970000Y-119700000D03*
X140070000Y-119700000D03*
X138120000Y-119700000D03*
X138120000Y-117750000D03*
X140070000Y-117750000D03*
X143970000Y-117750000D03*
X142020000Y-117750000D03*
X149820000Y-117750000D03*
X151770000Y-117750000D03*
X147870000Y-117750000D03*
X145920000Y-117750000D03*
X157620000Y-117750000D03*
X159570000Y-117750000D03*
X155670000Y-117750000D03*
X153720000Y-117750000D03*
X122520000Y-117750000D03*
X124470000Y-117750000D03*
X128370000Y-117750000D03*
X126420000Y-117750000D03*
X134220000Y-117750000D03*
X136170000Y-117750000D03*
X132270000Y-117750000D03*
X130320000Y-117750000D03*
X114720000Y-117750000D03*
X116670000Y-117750000D03*
X120570000Y-117750000D03*
X118620000Y-117750000D03*
X110820000Y-117750000D03*
X112770000Y-117750000D03*
X108870000Y-117750000D03*
X106920000Y-117750000D03*
X106920000Y-86550000D03*
X108870000Y-86550000D03*
X112770000Y-86550000D03*
X110820000Y-86550000D03*
X118620000Y-86550000D03*
X120570000Y-86550000D03*
X116670000Y-86550000D03*
X114720000Y-86550000D03*
X130320000Y-86550000D03*
X132270000Y-86550000D03*
X136170000Y-86550000D03*
X134220000Y-86550000D03*
X126420000Y-86550000D03*
X128370000Y-86550000D03*
X124470000Y-86550000D03*
X122520000Y-86550000D03*
X153720000Y-86550000D03*
X155670000Y-86550000D03*
X159570000Y-86550000D03*
X157620000Y-86550000D03*
X145920000Y-86550000D03*
X147870000Y-86550000D03*
X151770000Y-86550000D03*
X149820000Y-86550000D03*
X142020000Y-86550000D03*
X143970000Y-86550000D03*
X140070000Y-86550000D03*
X138120000Y-86550000D03*
X138120000Y-88500000D03*
X140070000Y-88500000D03*
X143970000Y-88500000D03*
X142020000Y-88500000D03*
X149820000Y-88500000D03*
X151770000Y-88500000D03*
X147870000Y-88500000D03*
X145920000Y-88500000D03*
X157620000Y-88500000D03*
X159570000Y-88500000D03*
X155670000Y-88500000D03*
X153720000Y-88500000D03*
X122520000Y-88500000D03*
X124470000Y-88500000D03*
X128370000Y-88500000D03*
X126420000Y-88500000D03*
X134220000Y-88500000D03*
X136170000Y-88500000D03*
X132270000Y-88500000D03*
X130320000Y-88500000D03*
X114720000Y-88500000D03*
X116670000Y-88500000D03*
X120570000Y-88500000D03*
X118620000Y-88500000D03*
X110820000Y-88500000D03*
X112770000Y-88500000D03*
X108870000Y-88500000D03*
X106920000Y-88500000D03*
X106920000Y-92400000D03*
X108870000Y-92400000D03*
X112770000Y-92400000D03*
X110820000Y-92400000D03*
X118620000Y-92400000D03*
X120570000Y-92400000D03*
X116670000Y-92400000D03*
X114720000Y-92400000D03*
X130320000Y-92400000D03*
X132270000Y-92400000D03*
X136170000Y-92400000D03*
X134220000Y-92400000D03*
X126420000Y-92400000D03*
X128370000Y-92400000D03*
X124470000Y-92400000D03*
X122520000Y-92400000D03*
X153720000Y-92400000D03*
X155670000Y-92400000D03*
X159570000Y-92400000D03*
X157620000Y-92400000D03*
X145920000Y-92400000D03*
X147870000Y-92400000D03*
X151770000Y-92400000D03*
X149820000Y-92400000D03*
X142020000Y-92400000D03*
X143970000Y-92400000D03*
X140070000Y-92400000D03*
X138120000Y-92400000D03*
X138120000Y-90450000D03*
X140070000Y-90450000D03*
X143970000Y-90450000D03*
X142020000Y-90450000D03*
X149820000Y-90450000D03*
X151770000Y-90450000D03*
X147870000Y-90450000D03*
X145920000Y-90450000D03*
X157620000Y-90450000D03*
X159570000Y-90450000D03*
X155670000Y-90450000D03*
X153720000Y-90450000D03*
X122520000Y-90450000D03*
X124470000Y-90450000D03*
X128370000Y-90450000D03*
X126420000Y-90450000D03*
X134220000Y-90450000D03*
X136170000Y-90450000D03*
X132270000Y-90450000D03*
X130320000Y-90450000D03*
X114720000Y-90450000D03*
X116670000Y-90450000D03*
X120570000Y-90450000D03*
X118620000Y-90450000D03*
X110820000Y-90450000D03*
X112770000Y-90450000D03*
X108870000Y-90450000D03*
X106920000Y-90450000D03*
X106920000Y-98250000D03*
X108870000Y-98250000D03*
X112770000Y-98250000D03*
X110820000Y-98250000D03*
X118620000Y-98250000D03*
X120570000Y-98250000D03*
X116670000Y-98250000D03*
X114720000Y-98250000D03*
X130320000Y-98250000D03*
X132270000Y-98250000D03*
X136170000Y-98250000D03*
X134220000Y-98250000D03*
X126420000Y-98250000D03*
X128370000Y-98250000D03*
X124470000Y-98250000D03*
X122520000Y-98250000D03*
X153720000Y-98250000D03*
X155670000Y-98250000D03*
X159570000Y-98250000D03*
X157620000Y-98250000D03*
X145920000Y-98250000D03*
X147870000Y-98250000D03*
X151770000Y-98250000D03*
X149820000Y-98250000D03*
X142020000Y-98250000D03*
X143970000Y-98250000D03*
X140070000Y-98250000D03*
X138120000Y-98250000D03*
X138120000Y-100200000D03*
X140070000Y-100200000D03*
X143970000Y-100200000D03*
X142020000Y-100200000D03*
X149820000Y-100200000D03*
X151770000Y-100200000D03*
X147870000Y-100200000D03*
X145920000Y-100200000D03*
X157620000Y-100200000D03*
X159570000Y-100200000D03*
X155670000Y-100200000D03*
X153720000Y-100200000D03*
X122520000Y-100200000D03*
X124470000Y-100200000D03*
X128370000Y-100200000D03*
X126420000Y-100200000D03*
X134220000Y-100200000D03*
X136170000Y-100200000D03*
X132270000Y-100200000D03*
X130320000Y-100200000D03*
X114720000Y-100200000D03*
X116670000Y-100200000D03*
X120570000Y-100200000D03*
X118620000Y-100200000D03*
X110820000Y-100200000D03*
X112770000Y-100200000D03*
X108870000Y-100200000D03*
X106920000Y-100200000D03*
X106920000Y-96300000D03*
X108870000Y-96300000D03*
X112770000Y-96300000D03*
X110820000Y-96300000D03*
X118620000Y-96300000D03*
X120570000Y-96300000D03*
X116670000Y-96300000D03*
X114720000Y-96300000D03*
X130320000Y-96300000D03*
X132270000Y-96300000D03*
X136170000Y-96300000D03*
X134220000Y-96300000D03*
X126420000Y-96300000D03*
X128370000Y-96300000D03*
X124470000Y-96300000D03*
X122520000Y-96300000D03*
X153720000Y-96300000D03*
X155670000Y-96300000D03*
X159570000Y-96300000D03*
X157620000Y-96300000D03*
X145920000Y-96300000D03*
X147870000Y-96300000D03*
X151770000Y-96300000D03*
X149820000Y-96300000D03*
X142020000Y-96300000D03*
X143970000Y-96300000D03*
X140070000Y-96300000D03*
X138120000Y-96300000D03*
X138120000Y-94350000D03*
X140070000Y-94350000D03*
X143970000Y-94350000D03*
X142020000Y-94350000D03*
X149820000Y-94350000D03*
X151770000Y-94350000D03*
X147870000Y-94350000D03*
X145920000Y-94350000D03*
X157620000Y-94350000D03*
X159570000Y-94350000D03*
X155670000Y-94350000D03*
X153720000Y-94350000D03*
X122520000Y-94350000D03*
X124470000Y-94350000D03*
X128370000Y-94350000D03*
X126420000Y-94350000D03*
X134220000Y-94350000D03*
X136170000Y-94350000D03*
X132270000Y-94350000D03*
X130320000Y-94350000D03*
X114720000Y-94350000D03*
X116670000Y-94350000D03*
X120570000Y-94350000D03*
X118620000Y-94350000D03*
X110820000Y-94350000D03*
X112770000Y-94350000D03*
X108870000Y-94350000D03*
X106920000Y-94350000D03*
X106920000Y-78750000D03*
X108870000Y-78750000D03*
X112770000Y-78750000D03*
X110820000Y-78750000D03*
X118620000Y-78750000D03*
X120570000Y-78750000D03*
X116670000Y-78750000D03*
X114720000Y-78750000D03*
X130320000Y-78750000D03*
X132270000Y-78750000D03*
X136170000Y-78750000D03*
X134220000Y-78750000D03*
X126420000Y-78750000D03*
X128370000Y-78750000D03*
X124470000Y-78750000D03*
X122520000Y-78750000D03*
X153720000Y-78750000D03*
X155670000Y-78750000D03*
X159570000Y-78750000D03*
X157620000Y-78750000D03*
X145920000Y-78750000D03*
X147870000Y-78750000D03*
X151770000Y-78750000D03*
X149820000Y-78750000D03*
X142020000Y-78750000D03*
X143970000Y-78750000D03*
X140070000Y-78750000D03*
X138120000Y-78750000D03*
X138120000Y-80700000D03*
X140070000Y-80700000D03*
X143970000Y-80700000D03*
X142020000Y-80700000D03*
X149820000Y-80700000D03*
X151770000Y-80700000D03*
X147870000Y-80700000D03*
X145920000Y-80700000D03*
X157620000Y-80700000D03*
X159570000Y-80700000D03*
X155670000Y-80700000D03*
X153720000Y-80700000D03*
X122520000Y-80700000D03*
X124470000Y-80700000D03*
X128370000Y-80700000D03*
X126420000Y-80700000D03*
X134220000Y-80700000D03*
X136170000Y-80700000D03*
X132270000Y-80700000D03*
X130320000Y-80700000D03*
X114720000Y-80700000D03*
X116670000Y-80700000D03*
X120570000Y-80700000D03*
X118620000Y-80700000D03*
X110820000Y-80700000D03*
X112770000Y-80700000D03*
X108870000Y-80700000D03*
X106920000Y-80700000D03*
X106920000Y-84600000D03*
X108870000Y-84600000D03*
X112770000Y-84600000D03*
X110820000Y-84600000D03*
X118620000Y-84600000D03*
X120570000Y-84600000D03*
X116670000Y-84600000D03*
X114720000Y-84600000D03*
X130320000Y-84600000D03*
X132270000Y-84600000D03*
X136170000Y-84600000D03*
X134220000Y-84600000D03*
X126420000Y-84600000D03*
X128370000Y-84600000D03*
X124470000Y-84600000D03*
X122520000Y-84600000D03*
X153720000Y-84600000D03*
X155670000Y-84600000D03*
X159570000Y-84600000D03*
X157620000Y-84600000D03*
X145920000Y-84600000D03*
X147870000Y-84600000D03*
X151770000Y-84600000D03*
X149820000Y-84600000D03*
X142020000Y-84600000D03*
X143970000Y-84600000D03*
X140070000Y-84600000D03*
X138120000Y-84600000D03*
X138120000Y-82650000D03*
X140070000Y-82650000D03*
X143970000Y-82650000D03*
X142020000Y-82650000D03*
X149820000Y-82650000D03*
X151770000Y-82650000D03*
X147870000Y-82650000D03*
X145920000Y-82650000D03*
X157620000Y-82650000D03*
X159570000Y-82650000D03*
X155670000Y-82650000D03*
X153720000Y-82650000D03*
X122520000Y-82650000D03*
X124470000Y-82650000D03*
X128370000Y-82650000D03*
X126420000Y-82650000D03*
X134220000Y-82650000D03*
X136170000Y-82650000D03*
X132270000Y-82650000D03*
X130320000Y-82650000D03*
X114720000Y-82650000D03*
X116670000Y-82650000D03*
X120570000Y-82650000D03*
X118620000Y-82650000D03*
X110820000Y-82650000D03*
X112770000Y-82650000D03*
X108870000Y-82650000D03*
X106920000Y-82650000D03*
X106920000Y-74850000D03*
X108870000Y-74850000D03*
X112770000Y-74850000D03*
X110820000Y-74850000D03*
X118620000Y-74850000D03*
X120570000Y-74850000D03*
X116670000Y-74850000D03*
X114720000Y-74850000D03*
X130320000Y-74850000D03*
X132270000Y-74850000D03*
X136170000Y-74850000D03*
X134220000Y-74850000D03*
X126420000Y-74850000D03*
X128370000Y-74850000D03*
X124470000Y-74850000D03*
X122520000Y-74850000D03*
X153720000Y-74850000D03*
X155670000Y-74850000D03*
X159570000Y-74850000D03*
X157620000Y-74850000D03*
X145920000Y-74850000D03*
X147870000Y-74850000D03*
X151770000Y-74850000D03*
X149820000Y-74850000D03*
X142020000Y-74850000D03*
X143970000Y-74850000D03*
X140070000Y-74850000D03*
X138120000Y-74850000D03*
X138120000Y-76800000D03*
X140070000Y-76800000D03*
X143970000Y-76800000D03*
X142020000Y-76800000D03*
X149820000Y-76800000D03*
X151770000Y-76800000D03*
X147870000Y-76800000D03*
X145920000Y-76800000D03*
X157620000Y-76800000D03*
X159570000Y-76800000D03*
X155670000Y-76800000D03*
X153720000Y-76800000D03*
X122520000Y-76800000D03*
X124470000Y-76800000D03*
X128370000Y-76800000D03*
X126420000Y-76800000D03*
X134220000Y-76800000D03*
X136170000Y-76800000D03*
X132270000Y-76800000D03*
X130320000Y-76800000D03*
X114720000Y-76800000D03*
X116670000Y-76800000D03*
X120570000Y-76800000D03*
X118620000Y-76800000D03*
X110820000Y-76800000D03*
X112770000Y-76800000D03*
X108870000Y-76800000D03*
X106920000Y-76800000D03*
X106920000Y-72900000D03*
X108870000Y-72900000D03*
X112770000Y-72900000D03*
X110820000Y-72900000D03*
X118620000Y-72900000D03*
X120570000Y-72900000D03*
X116670000Y-72900000D03*
X114720000Y-72900000D03*
X130320000Y-72900000D03*
X132270000Y-72900000D03*
X136170000Y-72900000D03*
X134220000Y-72900000D03*
X126420000Y-72900000D03*
X128370000Y-72900000D03*
X124470000Y-72900000D03*
X122520000Y-72900000D03*
X153720000Y-72900000D03*
X155670000Y-72900000D03*
X159570000Y-72900000D03*
X157620000Y-72900000D03*
X145920000Y-72900000D03*
X147870000Y-72900000D03*
X151770000Y-72900000D03*
X149820000Y-72900000D03*
X142020000Y-72900000D03*
X143970000Y-72900000D03*
X140070000Y-72900000D03*
X138120000Y-72900000D03*
X138120000Y-70950000D03*
X140070000Y-70950000D03*
X143970000Y-70950000D03*
X142020000Y-70950000D03*
X149820000Y-70950000D03*
X151770000Y-70950000D03*
X147870000Y-70950000D03*
X145920000Y-70950000D03*
X157620000Y-70950000D03*
X159570000Y-70950000D03*
X155670000Y-70950000D03*
X153720000Y-70950000D03*
X122520000Y-70950000D03*
X124470000Y-70950000D03*
X128370000Y-70950000D03*
X126420000Y-70950000D03*
X134220000Y-70950000D03*
X136170000Y-70950000D03*
X132270000Y-70950000D03*
X130320000Y-70950000D03*
X114720000Y-70950000D03*
X116670000Y-70950000D03*
X120570000Y-70950000D03*
X118620000Y-70950000D03*
X110820000Y-70950000D03*
X112770000Y-70950000D03*
X108870000Y-70950000D03*
X106920000Y-70950000D03*
M02*
